# xmcd CD database file
#
# Track frame offsets:
#	150
#	18563
#	45327
#	60183
#	96196
#	116351
#	135927
#	151312
#	173095
#	189371
#	208087
#	225727
#	241369
#	265705
#	286620
#
# Disc length: 4047 seconds
#
# Revision: 0
# Processed by: cddbd v1.5.2PL0 Copyright (c) Steve Scherf et al.
# Submitted via: CDex 1.79
#
DISCID=b50fcd0f
DTITLE=Janusz Szrom, Zbigniew Wrombel - Spiewnik
DYEAR=2012
DGENRE=Jazz
TTITLE0=Pod Papugami
TTITLE1=Uciekaj moje serce
TTITLE2=Tylko wroc
TTITLE3=Jej portret
TTITLE4=Za szyba
TTITLE5=Ludzkie gadanie
TTITLE6=Kidy bylem malym chlopcem
TTITLE7=Wspomnienie
TTITLE8=Tribute to Andrzej Zaucha
TTITLE9=Bylas serca biciem
TTITLE10=Historia jednej znajomosci
TTITLE11=Tribute to Krzysztof Komeda
TTITLE12=Kolysanka Rosemary
TTITLE13=Siodmy rok
TTITLE14=Plonaca stodola
EXTD=YEAR: 2012
EXTT0=
EXTT1=
EXTT2=
EXTT3=
EXTT4=
EXTT5=
EXTT6=
EXTT7=
EXTT8=
EXTT9=
EXTT10=
EXTT11=
EXTT12=
EXTT13=
EXTT14=
PLAYORDER=
